<svg xml:space="preserve" style="max-height: 500px" viewBox="113.3003884180791 275.80644 368.27881355932203 195.3208" y="0px" x="0px" xmlns:xlink="http://www.w3.org/1999/xlink" xmlns="http://www.w3.org/2000/svg" id="Layer_1" version="1.1" width="368.27881355932203" height="195.3208">
<style type="text/css">
	.st0{fill:#FFFFFF;}
	.st1{fill:#36AF4A;}
	.st2{fill:#FFFFFF;stroke:#36AF4A;stroke-width:17.3579;stroke-miterlimit:10;}
</style>
<g>
	<path d="M139.8,551.8V497h4.9l25.8,42.8H168l25.5-42.8h4.9v54.8h-5.7v-46.1h1.4l-23.5,39.2h-2.8L144,505.6h1.5v46.1&#10;&#9;&#9;H139.8z" class="st0"/>
	<path d="M238.9,546.8h33.9v5h-39.9V497h38.7v5h-32.7V546.8z M238.2,521.5H268v4.9h-29.8V521.5z" class="st0"/>
	<path d="M302.9,551.8V497h23c6,0,11.3,1.2,15.8,3.5c4.5,2.3,8.1,5.5,10.6,9.7c2.5,4.1,3.8,8.9,3.8,14.3&#10;&#9;&#9;c0,5.4-1.3,10.1-3.8,14.3c-2.5,4.1-6.1,7.3-10.6,9.7c-4.5,2.3-9.8,3.5-15.8,3.5H302.9z M308.9,546.8h16.7c5,0,9.3-1,13-2.9&#10;&#9;&#9;c3.7-1.9,6.5-4.5,8.6-7.9c2-3.4,3.1-7.2,3.1-11.6c0-4.4-1-8.3-3.1-11.7c-2-3.3-4.9-6-8.6-7.9c-3.7-1.9-8-2.9-13-2.9h-16.7V546.8z" class="st0"/>
	<path d="M388.5,490.7c-1.1,0-2-0.4-2.7-1.1c-0.8-0.7-1.1-1.6-1.1-2.7c0-1.1,0.4-2,1.1-2.7c0.8-0.7,1.7-1.1,2.7-1.1&#10;&#9;&#9;c1.1,0,2,0.4,2.7,1.1c0.8,0.7,1.1,1.6,1.1,2.7c0,1-0.4,1.9-1.1,2.7C390.5,490.3,389.6,490.7,388.5,490.7z M385.6,551.8V497h6v54.8&#10;&#9;&#9;H385.6z" class="st0"/>
	<path d="M417,551.8l25.8-54.8h5.9l25.8,54.8h-6.3l-23.7-51.5h2.4l-23.7,51.5H417z M427.1,537.1l1.8-4.7h32.8l1.8,4.7&#10;&#9;&#9;H427.1z" class="st0"/>
</g>
<g>
	<g>
		<path d="M382,458.8H213.3c-46.2,0-84-37.8-84-84v0c0-46.2,37.8-84,84-84H382c46.2,0,84,37.8,84,84v0&#10;&#9;&#9;&#9;C465.9,421,428.2,458.8,382,458.8z" class="st1"/>
	</g>
	<g>
		<polygon points="313.8,424.1 313.8,306 387.4,348.2 387.4,372.8 332.8,342.3 332.8,424.1" class="st0"/>
	</g>
	<g>
		<polygon points="423.8,317.9 423.8,435.9 350.2,393.8 350.2,369.2 404.8,399.6 404.8,317.9" class="st0"/>
	</g>
	<circle r="74.5" cy="375.2" cx="211.7" class="st2"/>
</g>
</svg>